<svg xmlns="http://www.w3.org/2000/svg" width="200" height="52" fill="none" viewBox="0 0 200 52"><path fill="#C34813" fill-rule="evenodd" d="m112.628 18.71 3.887-3.885c3.391-3.38 3.391-8.881 0-12.274a8.6 8.6 0 0 0-6.13-2.538 8.64 8.64 0 0 0-6.13 2.538l-3.886 3.886-.013-.013-.007.007-3.892-3.893A8.6 8.6 0 0 0 90.327 0c-2.31 0-4.501.908-6.13 2.538-3.393 3.392-3.393 8.895 0 12.274l3.886 3.886-3.886 3.886a8.6 8.6 0 0 0-2.538 6.13c0 2.31.908 4.501 2.538 6.13a8.6 8.6 0 0 0 6.13 2.538c2.31 0 4.501-.908 6.13-2.538l3.892-3.893 3.906 3.907a8.6 8.6 0 0 0 6.13 2.538 8.64 8.64 0 0 0 6.13-2.538 8.6 8.6 0 0 0 2.538-6.13c0-2.31-.908-4.5-2.538-6.13l-3.887-3.886zm-6.744-14.543a6.32 6.32 0 0 1 4.501-1.856c1.697 0 3.299.654 4.501 1.856a6.37 6.37 0 0 1 0 9.002l-3.893 3.892-9.002-9 3.894-3.893zm-5.529 23.519-8.988-8.988 8.988-8.988 8.988 8.988zM85.823 13.169c-2.483-2.471-2.483-6.505 0-9.002a6.32 6.32 0 0 1 4.501-1.856c1.696 0 3.299.654 4.502 1.856l3.892 3.892-9 9.001-3.893-3.892zm9.003 20.059a6.32 6.32 0 0 1-4.502 1.856 6.33 6.33 0 0 1-4.5-1.856 6.33 6.33 0 0 1-1.857-4.501c0-1.697.655-3.299 1.856-4.501l3.907-3.907 9.001 9-3.905 3.908zm20.059 0a6.32 6.32 0 0 1-4.501 1.856 6.33 6.33 0 0 1-4.501-1.856l-3.907-3.906 9.002-9 3.905 3.905a6.32 6.32 0 0 1 1.858 4.501 6.32 6.32 0 0 1-1.858 4.501z" clip-rule="evenodd"></path><path fill="#fff" d="m8.32 18.498 5.422 7.825h-2.965l-3.94-5.742-3.953 5.742H0l5.396-7.772-5.143-7.48H3.22l3.673 5.396 3.753-5.396h2.858l-5.169 7.425h-.012zM27.9 11.071l5.862 15.265H31.13l-1.563-4.22H23.73l-1.562 4.22H19.55l5.863-15.265zm-3.354 8.788h4.181l-2.096-5.65-2.096 5.65h.013zM43.579 20.634v5.69h-2.591V11.07h5.902c3.152 0 5.222 1.643 5.222 4.795 0 3.15-2.056 4.78-5.222 4.78H43.58zm3.273-7.332h-3.259v5.101h3.259c1.79 0 2.71-1.068 2.71-2.537 0-1.47-.907-2.551-2.71-2.551zM65.816 26.59c-4.128 0-7.025-3.325-7.025-7.892s2.898-7.88 7.025-7.88c4.126 0 7.064 3.312 7.064 7.88s-2.938 7.893-7.064 7.893m0-13.448c-2.684 0-4.434 2.337-4.434 5.569s1.736 5.57 4.434 5.57 4.447-2.339 4.447-5.57-1.764-5.57-4.447-5.57M139.542 21.957c0 2.858-1.991 4.366-5.169 4.366h-5.837V11.071h5.342c3.179 0 5.169 1.416 5.169 4.154 0 1.643-.868 2.831-1.989 3.231 1.443.468 2.484 1.884 2.484 3.5m-5.69-4.474c1.776 0 2.711-.668 2.711-2.11 0-1.443-.948-2.057-2.711-2.057h-2.804v4.18h2.804zm-2.818 6.61h3.286c1.736 0 2.684-.868 2.684-2.244 0-1.375-.948-2.23-2.684-2.23h-3.286zM154.045 11.071l5.863 15.265h-2.631l-1.562-4.22h-5.837l-1.563 4.22h-2.618l5.863-15.265zm.829 8.788-2.098-5.65-2.096 5.65zM179.434 26.323h-1.99l-7.8-11.111v11.111h-2.484V11.071h2.444l7.359 10.591v-10.59h2.484v15.264zM190.451 17.71l6.117-6.637h3.206l-6.892 7.305 7.118 7.96h-3.286l-6.264-6.985v6.985h-2.591V11.073h2.591v6.637zM81.757 51.595v-5.74h3.6v.745h-2.734v1.748h2.545v.743h-2.545v1.758h2.766v.745h-3.633zm7.968-4.233a.82.82 0 0 0-.37-.618q-.326-.22-.82-.22-.353 0-.61.112a.94.94 0 0 0-.401.302.72.72 0 0 0-.14.434q0 .205.095.354.096.149.256.25.159.097.342.165.181.064.35.105l.56.146q.275.068.565.182.288.115.534.303.249.188.398.465.156.277.155.663 0 .488-.252.867-.25.377-.725.597-.474.219-1.147.218c-.45 0-.802-.068-1.116-.204a1.7 1.7 0 0 1-.738-.58 1.7 1.7 0 0 1-.294-.898h.869q.026.311.201.52.18.204.458.306.28.099.613.098.368 0 .654-.115.288-.118.453-.325a.77.77 0 0 0 .165-.491q0-.255-.146-.417a1.1 1.1 0 0 0-.388-.27 4 4 0 0 0-.553-.186l-.678-.185q-.691-.187-1.094-.553-.401-.364-.4-.965 0-.496.27-.866.269-.37.728-.575a2.5 2.5 0 0 1 1.037-.208c.385 0 .732.069 1.03.204q.448.205.706.563.257.356.27.82h-.836zm1.745-.762v-.746h4.443v.746H94.12v4.995h-.864V46.6H91.47m5.719 5.048a.54.54 0 0 1-.395-.162.54.54 0 0 1-.166-.398.53.53 0 0 1 .166-.393.54.54 0 0 1 .395-.165q.229 0 .395.165.165.163.165.393a.58.58 0 0 1-.28.484.54.54 0 0 1-.28.076m3.827-.053v-.627l1.942-2.013q.311-.328.513-.574a2.2 2.2 0 0 0 .306-.474q.1-.225.101-.477a.9.9 0 0 0-.135-.493.9.9 0 0 0-.366-.323 1.2 1.2 0 0 0-.525-.115q-.308 0-.538.127a.85.85 0 0 0-.353.356 1.1 1.1 0 0 0-.124.538h-.826q0-.524.241-.917.24-.393.661-.608.422-.219.956-.218c.357 0 .678.072.953.216q.415.212.647.583.233.368.233.83 0 .319-.12.625a2.7 2.7 0 0 1-.412.68q-.295.372-.819.906l-1.142 1.194v.043h2.585v.743h-3.78zm6.919.096q-.665-.002-1.136-.35t-.72-1.013-.25-1.6.25-1.595q.252-.663.723-1.009.473-.346 1.133-.347.659 0 1.13.35.471.347.72 1.009.252.659.252 1.592c0 .623-.082 1.161-.249 1.604q-.25.663-.721 1.013-.47.347-1.132.347zm0-.75q.582 0 .911-.569t.331-1.645q0-.715-.151-1.21-.15-.495-.429-.75a.94.94 0 0 0-.661-.26q-.58 0-.911.573-.331.572-.334 1.645 0 .718.148 1.215.151.493.429.749a.96.96 0 0 0 .667.252m5.354-5.087v5.741h-.869v-4.871h-.033l-1.375.897v-.829l1.433-.936h.843zm3.631 5.82q-.577 0-1.032-.199a1.74 1.74 0 0 1-.715-.553 1.47 1.47 0 0 1-.281-.823h.88a.76.76 0 0 0 .17.443q.158.184.41.285t.56.1q.339 0 .601-.117a1 1 0 0 0 .412-.328.84.84 0 0 0 .148-.49.9.9 0 0 0-.577-.856 1.65 1.65 0 0 0-.678-.126h-.484v-.707h.484q.32 0 .561-.115a.93.93 0 0 0 .381-.319.86.86 0 0 0 .136-.485.85.85 0 0 0-.12-.463.8.8 0 0 0-.336-.311 1.1 1.1 0 0 0-.51-.112c-.196 0-.361.035-.524.103a.97.97 0 0 0-.393.292.75.75 0 0 0-.162.45h-.839q.014-.465.274-.818a1.8 1.8 0 0 1 .696-.553q.431-.2.959-.199c.351 0 .685.072.953.216q.402.213.622.57.221.356.219.778a1.256 1.256 0 0 1-.987 1.27v.045q.572.087.886.455.316.368.314.91.002.475-.264.85-.263.376-.72.592a2.45 2.45 0 0 1-1.047.213z"></path></svg>